<svg xmlns="http://www.w3.org/2000/svg" viewBox="0 0 200 60" role="img" aria-label="M-PESA logo">
  <rect width="200" height="60" rx="12" fill="#0B6B2D"/>
  <circle cx="38" cy="30" r="16" fill="#fff"/>
  <path d="M38 18c-6.6 0-12 5.4-12 12s5.4 12 12 12 12-5.4 12-12-5.4-12-12-12zm0 4c4.4 0 8 3.6 8 8s-3.6 8-8 8-8-3.6-8-8 3.6-8 8-8z" fill="#0B6B2D"/>
  <path d="M64 22h16l8 16h-14l-2 4h14l-3 6H68l-4-8h10l-2-4H58l6-14z" fill="#fff"/>
  <text x="92" y="36" font-family="Poppins, Arial, sans-serif" font-size="22" font-weight="600" fill="#fff">M-PESA</text>
</svg>